<svg id="Layer_5" enable-background="new 0 0 64 64" height="512" viewBox="0 0 64 64" width="512" xmlns="http://www.w3.org/2000/svg"><g><g><g><path d="m54 4v18l-.01.04c-.16-.03-.32-.04-.48-.04h-.11c-.9 0-1.76.35-2.41.97l-2.56 2.46-5.79 5.57h-4.36c-1.19 0-2.34.35-3.31 1h-8.97-8-8v6 20h8 8 8 8 8v-11.28-.01l4-1.14v14.43c0 1.1-.9 2-2 2h-44c-1.1 0-2-.9-2-2v-40c1.67 1.25 3.75 2 6 2 5.52 0 10-4.48 10-10s-4.48-10-10-10h40c1.1 0 2 .9 2 2z" fill="#e6e9ed"/></g><g><path d="m10 32h8v6h-8z" fill="#ff826e"/></g><g><path d="m18 32v6h10.13l6.17-5.48c.21-.19.43-.36.67-.52z" fill="#b4dd7f"/></g><g><path d="m49.81 46.77c-.54.15-1.09.23-1.65.23h-6.16-4.78l-3.22 2.59-3 2.41-4.7 1.88c-.1.04-.2.07-.31.09-.1.02-.21.03-.31.03-.93 0-1.68-.75-1.68-1.68 0-.21.04-.42.12-.62l1.88-4.7 3.06-2.95.05.01c.1-.42.27-.81.49-1.16h-.53c-.59-.16-1.11-.52-1.48-1s-.59-1.08-.59-1.73c0-.74.32-1.45.88-1.95l.25-.22h-2.13-8-8v20h40v-11.28z" fill="#ffeaa7"/></g><g><path d="m26 6h24v6h-24z" fill="#4fc1e9"/></g><g><path d="m12 2c5.52 0 10 4.48 10 10s-4.48 10-10 10c-2.25 0-4.33-.75-6-2-2.43-1.83-4-4.73-4-8 0-5.52 4.48-10 10-10z" fill="#fcd770"/></g><g><path d="m31 52-4.7 1.88c-.1.04-.2.07-.31.09-.1.02-.21.03-.31.03-.93 0-1.68-.75-1.68-1.68 0-.21.04-.42.12-.62l1.88-4.7z" fill="#aab2bd"/></g><g><path d="m53.51 22c.16 0 .32.01.48.04 1.7.22 3.01 1.68 3.01 3.45 0 .96-.4 1.88-1.11 2.54l-2.51 2.35-4.95-4.95 2.56-2.46c.65-.62 1.51-.97 2.41-.97z" fill="#aab2bd"/></g><g><path d="m29 45c0 1.1.9 2 2 2h6.22l-3.22 2.59-3 2.41-5-5 3.06-2.95.05.01c-.07.3-.11.62-.11.94z" fill="#ff826e"/></g><g><path d="m53.38 30.38-2.31 2.15-9.07 8.47h-9c-.29 0-.58.03-.85.09l10.49-10.09 5.79-5.57z" fill="#ff826e"/></g><g><path d="m62 33v14l-6-2v-10z" fill="#b4dd7f"/></g><g><path d="m30.17 42.17c-.22.22-.41.47-.57.73h-.53c-.59-.16-1.11-.52-1.48-1s-.59-1.08-.59-1.73c0-.74.32-1.45.88-1.95l.25-.22 6.17-5.48c.21-.19.43-.36.67-.52.97-.65 2.12-1 3.31-1h4.36l-10.49 10.09c-.76.17-1.44.55-1.98 1.08z" fill="#f0d0b4"/></g><g><path d="m42 41 9.07-8.47 4.93 2.47v10l-2 .57-4 1.14v.01l-.19.05c-.54.15-1.09.23-1.65.23h-6.16-4.78-6.22c-1.1 0-2-.9-2-2 0-.32.04-.64.11-.94.1-.42.27-.81.49-1.16.16-.26.35-.51.57-.73.54-.53 1.22-.91 1.98-1.08.27-.06.56-.09.85-.09z" fill="#f0d0b4"/></g></g><g><path d="m11 16.855v2.145h2v-2.145c1.155-.366 2-1.435 2-2.709 0-1.088-.604-2.066-1.578-2.553l-1.949-.975c-.292-.145-.473-.438-.473-.764 0-.471.384-.854.854-.854h.291c.471 0 .855.383.855.854v1.146h2v-1.146c0-1.274-.845-2.343-2-2.709v-2.145h-2v2.145c-1.155.366-2 1.435-2 2.709 0 1.088.604 2.066 1.578 2.553l1.949.975c.292.145.473.438.473.764 0 .471-.384.854-.854.854h-.291c-.471 0-.855-.383-.855-.854v-1.146h-2v1.146c0 1.274.845 2.343 2 2.709z"/><path d="m63 48.387v-16.774l-6.923 2.308-3.273-1.636 3.771-3.52c.905-.847 1.425-2.041 1.425-3.28 0-1.95-1.258-3.596-3-4.213v-17.272c0-1.654-1.346-3-3-3h-40c-6.065 0-11 4.935-11 11 0 3.408 1.559 6.459 4 8.479v39.521c0 1.654 1.346 3 3 3h44c1.654 0 3-1.346 3-3v-13.674l.977-.279zm-6-12.666 4-1.333v11.226l-4-1.333zm-2-.103v8.628l-5.468 1.562c-.446.127-.908.192-1.372.192h-17.16c-.552 0-1-.449-1-1 0-1.654 1.346-3 3-3h8.586l2.707 2.707 1.414-1.414-2.268-2.268 7.805-7.285zm-6.582-8.786 3.522 3.522-10.334 9.646h-6.877zm-16.803 13.388c-.985.286-1.837.861-2.47 1.636-.68-.277-1.145-.936-1.145-1.685 0-.459.197-.897.54-1.202l6.419-5.706c.917-.814 2.097-1.263 3.322-1.263h1.879zm-.542 10.439-3.646-3.646.833-.803c.467 1.052 1.517 1.79 2.74 1.79h3.382zm-5.146 2.293c-.419.17-.927-.169-.927-.629 0-.086.017-.17.049-.251l1.317-3.292 2.855 2.855zm1.818-15.952h-.745v-4h5.245zm-2.745 0h-6v-4h6zm-8 0h-6v-4h6zm-6 2h6v18h-6zm8 0h7.216c-.129.375-.216.766-.216 1.171 0 1.459.839 2.768 2.105 3.41l-2.953 2.848-1.96 4.9c-.128.319-.192.653-.192.994 0 1.241.853 2.278 2 2.58v2.097h-6zm8 15.677 4.371-1.748 1.629-1.295v5.366h-6zm8-4.633 2.571-2.044h3.429v9h-6zm8-2.044h5.16c.281 0 .561-.025.84-.059v9.059h-6zm13-22.515c0 .686-.288 1.348-.79 1.817l-1.807 1.687-3.543-3.544 1.821-1.752c.465-.447 1.077-.693 1.722-.693h.111c1.371 0 2.486 1.115 2.486 2.485zm-53-13.485c0-4.962 4.037-9 9-9s9 4.038 9 9-4.037 9-9 9-9-4.038-9-9zm50 48c0 .551-.448 1-1 1h-44c-.552 0-1-.449-1-1v-38.214c1.502.77 3.199 1.214 5 1.214 6.065 0 11-4.935 11-11 0-3.72-1.861-7.008-4.695-9h33.695c.552 0 1 .449 1 1v17.039c-1.013.091-1.964.501-2.705 1.213l-8.056 7.748h-3.958c-1.279 0-2.523.35-3.604 1h-25.677v28h32 2 8v-11.532l2-.571z"/><path d="m51 5h-26v8h26zm-2 6h-22v-4h22z"/><path d="m25 15h26v2h-26z"/><path d="m25 19h22v2h-22z"/><path d="m49 19h2v2h-2z"/><path d="m25 23h16v2h-16z"/><path d="m25 27h16v2h-16z"/></g></g></svg>