<?xml version="1.0" encoding="UTF-8"?>
<!DOCTYPE svg PUBLIC "-//W3C//DTD SVG 1.1//EN" "http://www.w3.org/Graphics/SVG/1.1/DTD/svg11.dtd">
<!-- Creator: CorelDRAW X7 -->
<svg xmlns="http://www.w3.org/2000/svg" xml:space="preserve" width="43.3492mm" height="22.8598mm" version="1.1" style="shape-rendering:geometricPrecision; text-rendering:geometricPrecision; image-rendering:optimizeQuality; fill-rule:evenodd; clip-rule:evenodd" viewBox="0 0 4335 2286" xmlns:xlink="http://www.w3.org/1999/xlink">
	<defs>
		<style type="text/css">
			<![CDATA[
			.fil0 {fill:#E40539}
			.fil1 {fill:#FEFEFE}
			]]>
		</style>
	</defs>
	<g id="Layer_x0020_1">
		<metadata id="CorelCorpID_0Corel-Layer" />
		<g id="_3226875888672">
			<path class="fil0" d="M1223 575c5,40 87,196 106,240l159 -15 -8 58c-79,24 -209,39 -294,53 -82,13 -154,14 -194,156 124,-7 317,-61 432,-53l29 69c-70,26 -137,-4 -138,77 65,0 149,-15 215,-24 37,-4 67,-8 105,-13l84 -9c66,6 -51,-15 16,3l16 7c-34,50 -160,50 -219,59l-502 71c-113,12 -154,20 -221,-47 -219,-219 -234,-433 -422,-428 -43,1 -85,10 -125,18 -57,12 -79,5 -90,61 45,22 122,-20 168,-10 25,5 8,-2 24,10 -70,98 -302,-29 -313,162l180 -19c27,29 144,258 178,322 15,28 39,84 61,109l62 2c-18,-80 -182,-347 -169,-406 162,-18 119,221 423,296 -59,55 -177,-10 -175,101l970 -68 83 123c200,24 754,-18 992,-43 70,-8 82,-18 150,5 44,15 92,28 129,49l-23 11c-80,21 -1221,45 -1276,45 -265,2 -712,0 -974,-38 -125,-18 -168,-43 -307,-37 15,88 24,95 113,103 11,120 3,86 323,89 141,2 282,4 423,6 751,11 1749,58 2441,-52 364,-59 378,-89 342,-458 -32,-329 13,-338 -485,-362 -100,-5 -297,-4 -386,-26 -197,-50 -62,-255 -634,-115 -134,32 -222,45 -258,166l322 144c44,13 3,6 41,-9 59,-24 546,-85 628,-93 141,-13 460,-34 575,24 52,27 37,136 49,263 7,65 41,239 37,283 -59,3 -52,-32 -87,-68l-434 79c-46,6 -198,27 -241,20 -31,-4 -131,-86 -153,-112 19,-28 71,-62 4,-100 -28,-16 -74,-36 -111,-54 -70,-34 -153,-76 -226,-113l-900 -442c-183,-88 -299,-172 -515,-70z" />
			<path class="fil0" d="M4064 1308c-13,109 -21,417 4,516 20,76 91,387 130,421 82,-12 71,-125 75,-207 5,-94 7,-196 5,-290 -4,-153 -65,-340 -86,-498 -38,11 -31,15 -64,34 -28,16 -38,13 -64,24z" />
			<path class="fil0" d="M4027 992c56,2 104,28 138,26 8,-116 16,-443 -7,-542 -28,-120 -81,-329 -122,-435 -89,4 -79,111 -83,201 -15,421 -11,321 74,750z" />
			<path class="fil0" d="M2730 1040c22,24 445,260 486,276 42,-24 120,-111 166,-155 -7,-34 -46,-134 -65,-157l-587 36z" />
			<path class="fil1" d="M2938 1300c-14,-33 -121,-75 -162,-95l-862 -423c-65,-32 -303,-158 -364,-169 20,37 -6,0 15,20l1181 676c86,47 121,46 192,-9z" />
			<path class="fil0" d="M3509 1086l-44 -99 -49 2c-7,36 -4,36 12,78 33,86 49,81 -52,181 -22,22 -76,71 -86,86 180,-3 125,-61 204,-96l22 74 65 -4c-33,-126 -69,-119 -31,-190 29,-55 69,-138 78,-197 -28,29 -92,125 -119,165z" />
			<path class="fil0" d="M4065 1275c66,6 205,-110 219,-160 -18,-34 -58,-45 -99,-60 -171,-63 -156,-53 -144,78 5,49 6,101 24,142z" />
			<path class="fil1" d="M2398 737c19,21 12,13 39,27 120,61 101,28 277,6l123 -23c-66,-50 -100,-73 -209,-66 -85,6 -159,30 -230,56z" />
			<path class="fil1" d="M2930 785c-46,23 -125,4 -122,59 41,16 203,-19 246,-29 -10,-39 -46,-61 -96,-103 -39,-32 -71,-67 -150,-59 32,56 112,72 122,132z" />
			<path class="fil1" d="M4124 553c29,-48 -91,-432 -109,-459 -17,13 -25,16 -27,48 -3,40 110,387 136,411z" />
			<path class="fil1" d="M4207 2198c58,-45 10,-138 -22,-234 -14,-42 -27,-80 -39,-117 -16,-48 -24,-95 -49,-105 -25,40 98,434 110,456z" />
			<path class="fil1" d="M4067 1136c55,-3 134,-1 179,-21l-34 -24c-17,-8 -31,-12 -48,-17 -33,-12 -63,-24 -103,-26l6 88z" />
		</g>
	</g>
</svg>
