<?xml version="1.0" encoding="UTF-8"?>
<!DOCTYPE svg PUBLIC "-//W3C//DTD SVG 1.1//EN" "http://www.w3.org/Graphics/SVG/1.1/DTD/svg11.dtd">
<!-- Creator: CorelDRAW X7 -->
<svg xmlns="http://www.w3.org/2000/svg" xml:space="preserve" width="21.1666mm" height="8.4666mm" version="1.1" style="shape-rendering:geometricPrecision; text-rendering:geometricPrecision; image-rendering:optimizeQuality; fill-rule:evenodd; clip-rule:evenodd"
viewBox="0 0 2117 847"
 xmlns:xlink="http://www.w3.org/1999/xlink">
 <defs>
  <style type="text/css">
   <![CDATA[
    .fil0 {fill:#2B2A29}
   ]]>
  </style>
 </defs>
 <g id="Layer_x0020_1">
  <metadata id="CorelCorpID_0Corel-Layer"/>
  <g id="_2501186604848">
   <path class="fil0" d="M401 506c-2,26 8,50 30,56 32,9 42,-19 55,-27l20 28c-14,43 -97,72 -129,8 -26,-52 -13,-130 16,-171 35,-50 104,-50 122,17 6,23 6,46 3,71 -1,12 1,16 -11,17 -30,4 -73,-1 -106,1l0 0zm-182 -105c5,-3 1,0 5,-4l10 -13c21,-21 46,-26 69,-11 27,18 38,53 38,91 0,114 -73,178 -126,127 -9,-10 -9,-16 -16,-23 -3,4 -3,11 -4,16 0,5 0,11 0,17 -11,4 -24,3 -37,2 -3,-14 32,-262 35,-301 -8,1 -23,20 -29,26 -68,72 -130,171 -130,275 0,102 65,148 167,148 100,0 209,-53 286,-103 18,-13 62,-43 74,-57 -12,-42 -9,-33 -3,-83 1,-15 2,-32 4,-45 2,-12 5,-34 5,-45l-26 0c-1,-14 1,-36 6,-46 6,-1 10,0 15,-1 16,-1 14,-5 19,-66l36 0 -6 66 34 0 -4 44c-11,4 -21,2 -34,3 -6,14 -8,52 -11,70 -3,20 -10,56 1,69 9,-2 20,-16 26,-23 28,-28 45,-50 68,-80 27,-36 52,-84 68,-132 42,-127 -16,-226 -157,-226 -122,0 -268,87 -357,157 -12,10 -10,11 -13,30 -1,13 -2,25 -4,38 -3,21 -9,59 -9,80l0 0z"/>
   <path class="fil0" d="M845 412c68,-19 58,134 4,147 -42,11 -51,-38 -48,-72 3,-36 14,-66 44,-75l0 0zm-76 226c-5,4 -12,18 -16,24 -10,15 -10,17 1,28 13,13 33,26 55,27 56,3 79,-24 94,-65 14,-38 18,-93 23,-137l16 -143c-12,-1 -26,-3 -37,1 -1,9 1,20 -4,28 -7,-6 -14,-29 -36,-34 -118,-31 -147,253 -30,240 22,-3 30,-18 44,-27 -2,31 -9,68 -34,83 -12,7 -32,8 -46,2 -19,-10 -20,-21 -30,-27l0 0z"/>
   <path class="fil0" d="M1156 603c16,0 13,3 18,-43 5,-44 9,-129 39,-144 21,-10 34,6 36,22 4,27 -17,141 -16,165l38 -1c14,-43 2,-176 50,-188 45,-11 32,58 29,84l-12 104c45,2 38,8 42,-34 6,-57 42,-199 -33,-203 -45,-2 -48,37 -62,41 -7,-22 -15,-39 -42,-40 -32,-1 -36,17 -45,27 -5,6 0,2 -6,6l0 -28 -33 0c-5,13 -5,43 -7,60 -3,24 -21,158 -20,172l24 0 0 0z"/>
   <path class="fil0" d="M1464 464c-3,-23 18,-54 40,-57 30,-3 42,26 38,57l-78 0zm-7 43c17,-4 52,-2 71,-2 49,0 48,5 49,-20 2,-48 1,-86 -30,-109 -34,-25 -74,-5 -95,22 -20,26 -31,65 -31,108 0,44 14,84 48,99 52,22 96,-33 95,-42 -4,-8 -13,-20 -19,-28 -13,5 -24,38 -58,26 -20,-7 -31,-29 -30,-54z"/>
   <path class="fil0" d="M1065 498c-6,22 -2,34 -18,53 -49,58 -100,-62 18,-53zm26 103c3,-34 6,-69 10,-102 3,-30 12,-75 -1,-103 -24,-52 -98,-27 -114,-8 -10,13 8,40 8,40 0,0 1,1 1,2 11,-3 8,-6 23,-14 22,-12 55,-13 50,38 -49,6 -110,13 -112,85 -2,69 45,79 75,62 13,-7 17,-18 26,-22l-2 24 36 -2z"/>
   <path class="fil0" d="M1613 538c-5,1 -15,13 -20,17 -8,9 -10,12 -2,25 8,13 25,27 42,31 79,15 101,-84 72,-123 -14,-18 -23,-18 -43,-29 -37,-22 -7,-62 25,-48 7,4 10,12 15,19 7,-2 25,-18 29,-25 -5,-32 -49,-51 -84,-34 -28,13 -47,50 -38,89 10,43 58,42 67,63 9,21 -3,41 -26,41 -30,0 -29,-22 -37,-26z"/>
   <path class="fil0" d="M1990 602c6,-11 90,-218 92,-231l-39 1c-17,33 -41,109 -59,152 -5,12 2,4 -6,9 -4,-6 -4,-14 -4,-22 0,-30 -5,-34 -7,-57 -1,-12 -4,-78 -11,-81l-35 -1c-1,28 22,188 28,230l41 0 0 0z"/>
   <path class="fil0" d="M1887 305l-38 0 -8 65 -26 1c-4,14 -7,30 -5,47l25 0c1,38 -13,85 -13,128 -2,75 50,67 69,54l1 -41 -26 0c-3,-10 -4,-1 -6,-15 -1,-14 13,-120 16,-126l26 -1c9,-2 3,0 6,-2 5,-11 6,-30 5,-44l-34 -1 8 -65z"/>
   <path class="fil0" d="M299 499c23,-102 -71,-122 -89,-23 -6,34 -1,80 32,86 16,3 33,-8 41,-19 10,-16 11,-24 16,-44z"/>
   <path class="fil0" d="M403 464l67 1c10,0 15,2 16,-8 5,-41 -36,-72 -68,-31 -5,7 -16,27 -15,38z"/>
   <path class="fil0" d="M1736 576c6,42 50,39 47,-13 -2,-49 -54,-31 -47,13z"/>
  </g>
 </g>
</svg>
