<?xml version="1.0" encoding="UTF-8"?>
<!DOCTYPE svg PUBLIC "-//W3C//DTD SVG 1.1//EN" "http://www.w3.org/Graphics/SVG/1.1/DTD/svg11.dtd">
<!-- Creator: CorelDRAW X7 -->
<svg xmlns="http://www.w3.org/2000/svg" xml:space="preserve" width="21.1666mm" height="8.4666mm" version="1.1" style="shape-rendering:geometricPrecision; text-rendering:geometricPrecision; image-rendering:optimizeQuality; fill-rule:evenodd; clip-rule:evenodd"
viewBox="0 0 2117 847"
 xmlns:xlink="http://www.w3.org/1999/xlink">
 <defs>
  <style type="text/css">
   <![CDATA[
    .fil0 {fill:black}
    .fil1 {fill:#FCC42C}
   ]]>
  </style>
 </defs>
 <g id="Layer_x0020_1">
  <metadata id="CorelCorpID_0Corel-Layer"/>
  <g id="_2500971851152">
   <path class="fil0" d="M288 459c115,-10 117,235 0,225l0 -225zm-72 300c64,0 151,14 193,-42 42,-54 31,-213 10,-281l-203 -1 0 324z"/>
   <path class="fil0" d="M288 158c104,-7 106,232 0,227l0 -227zm54 -73l-126 0 -1 322 193 0c27,-40 31,-235 -2,-278 -15,-19 -31,-29 -51,-39l-8 -3c-1,-1 -3,-2 -5,-2l0 0z"/>
   <path class="fil1" d="M1440 716c30,-55 22,-197 22,-282l-73 0 1 150c0,41 10,103 -39,100 -63,-3 -29,-146 -36,-249l-68 0c-7,28 -3,163 -2,203 1,129 142,156 195,78l0 0z"/>
   <path class="fil1" d="M1294 102c-33,22 -48,60 -49,104 -1,66 0,134 0,201l72 -1c0,-45 -1,-89 0,-132 0,-52 -10,-85 21,-114 64,-5 52,38 52,93 0,51 1,103 -1,154l74 0c0,-67 0,-135 0,-201 -1,-97 -94,-156 -169,-104l0 0z"/>
   <path class="fil1" d="M1202 627c0,-53 6,-111 -13,-160 -18,-45 -25,-33 -134,-33 1,2 3,2 3,4 2,10 40,32 56,62 19,35 15,66 15,106 0,41 6,82 -41,78 -46,-4 -24,-48 -34,-87l-68 1c-18,215 215,207 216,29l0 0z"/>
   <path class="fil1" d="M986 211c-1,98 -7,120 30,196l117 -1c-18,-25 -39,-25 -58,-61 -15,-27 -42,-185 18,-187 47,-1 35,51 40,86l68 1c42,-189 -213,-222 -215,-34l0 0z"/>
   <polygon class="fil1" points="1702,85 1511,85 1511,407 1599,407 1690,406 1690,382 1584,383 1584,160 1702,157 "/>
   <polygon class="fil0" points="486,759 674,759 675,687 559,685 559,460 664,460 663,434 486,435 "/>
   <polygon class="fil0" points="675,85 487,85 486,406 661,406 660,382 558,382 558,270 558,158 674,157 "/>
   <polygon class="fil1" points="1942,85 1730,85 1730,158 1802,158 1802,406 1875,406 1875,158 1941,158 "/>
   <polygon class="fil0" points="938,85 728,85 728,158 800,157 800,406 872,407 872,158 937,157 "/>
   <polygon class="fil1" points="1511,759 1584,759 1584,609 1585,460 1690,460 1690,434 1619,434 1511,434 "/>
   <polygon class="fil1" points="1802,759 1875,759 1874,435 1805,435 "/>
   <polygon class="fil0" points="800,759 872,759 872,435 800,434 "/>
   <path class="fil1" d="M19 543c29,-12 89,-87 126,-121 -11,-19 -107,-117 -126,-127l0 248 0 0z"/>
   <polygon class="fil1" points="2098,545 2098,297 1971,420 "/>
  </g>
 </g>
</svg>
