<?xml version="1.0" encoding="utf-8"?>
<!-- Generator: Adobe Illustrator 16.0.0, SVG Export Plug-In . SVG Version: 6.00 Build 0)  -->
<!DOCTYPE svg PUBLIC "-//W3C//DTD SVG 1.1//EN" "http://www.w3.org/Graphics/SVG/1.1/DTD/svg11.dtd">
<svg version="1.1" id="Layer_1" xmlns="http://www.w3.org/2000/svg" xmlns:xlink="http://www.w3.org/1999/xlink" x="0px" y="0px"
	 width="183px" height="78px" viewBox="0 0 183 78" enable-background="new 0 0 183 78" xml:space="preserve">
<g>
	<path d="M182.285,69.604c0,4.099-3.299,7.396-7.396,7.396H8.698c-4.097,0-7.395-3.299-7.395-7.396V9.444
		c0-4.098,3.297-7.396,7.395-7.396h166.192c4.098,0,7.396,3.298,7.396,7.395L182.285,69.604L182.285,69.604z"/>
	<path fill="#FFC11B" d="M76.554,69.504c0,4.1-2.198,7.496-4.896,7.496H5.9c-2.698,0-4.897-3.299-4.897-7.496V9.444
		C0.904,5.346,3.102,2.048,5.9,2.048h65.757c2.699,0,4.896,3.298,4.896,7.495L76.554,69.504L76.554,69.504z"/>
	<g>
		<path fill="#FFFFFF" d="M103.038,63.809H88.746c-2.098,0-3.497-0.5-4.396-1.397c-0.9-0.899-1.3-2.399-1.3-4.396V22.835
			c0-2.098,0.5-3.598,1.399-4.497c0.899-0.9,2.399-1.399,4.398-1.399h15.189c2.198,0,4.198,0.099,5.795,0.4
			c1.601,0.299,3.099,0.799,4.397,1.598c1.1,0.7,2.1,1.499,2.897,2.498c0.897,1,1.499,2.099,1.897,3.398
			c0.397,1.199,0.699,2.498,0.699,3.897c0,4.696-2.299,8.094-6.996,10.294c6.096,1.998,9.194,5.794,9.194,11.393
			c0,2.599-0.698,4.996-1.999,7.095c-1.299,2.1-3.102,3.598-5.396,4.598c-1.397,0.601-3.098,1-4.896,1.301
			C107.732,63.707,105.535,63.809,103.038,63.809z M92.543,24.134v12.092h8.695c2.396,0,4.195-0.2,5.494-0.7
			c1.302-0.4,2.3-1.299,3-2.599c0.498-0.898,0.799-1.898,0.799-2.998c0-2.398-0.799-3.897-2.497-4.696
			c-1.699-0.799-4.198-1.2-7.695-1.2L92.543,24.134L92.543,24.134z M102.338,43.021h-9.895v13.689h10.191
			c6.396,0,9.594-2.298,9.594-6.896c0-2.397-0.797-4.099-2.496-5.099C108.134,43.521,105.635,43.021,102.338,43.021z"/>
		<path fill="#FFFFFF" d="M145.91,56.713l-7.496-29.78v32.278c0,1.8-0.398,3.1-1.2,3.997c-0.799,0.901-1.899,1.3-3.196,1.3
			c-1.3,0-2.297-0.398-3.099-1.3c-0.799-0.897-1.198-2.196-1.198-3.997V22.235c0-1.998,0.5-3.397,1.598-4.097
			c1.101-0.699,2.5-1.099,4.301-1.099h2.896c1.797,0,3.096,0.199,3.896,0.499c0.8,0.3,1.398,0.9,1.799,1.699
			c0.398,0.799,0.801,2.199,1.298,4.098l6.796,25.583l6.799-25.583c0.5-1.899,0.896-3.199,1.299-4.098
			c0.398-0.799,1-1.399,1.8-1.699c0.798-0.3,2.099-0.5,3.896-0.5h2.896c1.8,0,3.197,0.4,4.299,1.099c1.1,0.7,1.6,2.098,1.6,4.097
			v37.077c0,1.799-0.399,3.1-1.199,3.998c-0.801,0.899-1.897,1.299-3.297,1.299c-1.301,0-2.299-0.397-3.099-1.299
			c-0.801-0.898-1.2-2.199-1.2-3.998V26.933l-7.496,29.78c-0.498,1.898-0.896,3.398-1.197,4.298c-0.301,0.9-0.897,1.698-1.697,2.498
			c-0.803,0.7-1.999,1.101-3.396,1.101c-1.1,0-2-0.2-2.797-0.697c-0.802-0.5-1.402-1.102-1.801-1.801
			c-0.398-0.697-0.801-1.602-1-2.497C146.408,58.711,146.208,57.712,145.91,56.713z"/>
	</g>
	<g>
		<g>
			<path fill="#FFFFFF" d="M41.777,45.221h6.596c1.499,0,2.798-1.199,2.798-2.798c0-1.6-1.199-2.798-2.798-2.798h-6.596
				c-0.899-1.3-2.298-2.099-3.998-2.099c0,0,0,0-0.1,0l-5.996-8.494c-0.899-1.199-2.599-1.499-3.798-0.6
				c-1.199,0.899-1.499,2.598-0.6,3.797l5.997,8.494c-0.2,0.5-0.3,1.102-0.3,1.7c0,2.698,2.199,4.897,4.896,4.897
				C39.479,47.419,40.977,46.52,41.777,45.221z"/>
			<path fill="#FFFFFF" d="M58.167,62.509c5.097-5.096,8.194-12.19,8.194-19.985c0-15.791-12.792-28.48-28.482-28.48
				c-15.689,0-28.481,12.791-28.481,28.48c0,7.795,3.098,14.789,8.194,19.985l-2.698,2.498c-1.399,1.399-1.399,3.699,0,5.101
				c0.699,0.697,1.6,1.099,2.598,1.099s1.899-0.397,2.599-1.099l3.198-3.199c4.297,2.499,9.194,3.996,14.49,3.996
				c5.296,0,10.293-1.497,14.491-3.996l3.197,3.199c0.7,0.697,1.6,1.099,2.599,1.099c0.899,0,1.899-0.397,2.599-1.099
				c1.399-1.399,1.399-3.699,0-5.101L58.167,62.509z M37.779,59.313c-1,0-1.798,0.799-1.798,1.797v2.5
				c-10.194-0.898-18.389-8.993-19.188-19.188h2.499c0.999,0,1.798-0.799,1.798-1.798s-0.799-1.8-1.798-1.8h-2.499
				c0.899-10.193,8.994-18.388,19.188-19.188v2.499c0,1,0.799,1.8,1.798,1.8s1.799-0.8,1.799-1.8v-2.499
				c10.192,0.9,18.388,8.994,19.188,19.188h-2.499c-0.999,0-1.799,0.801-1.799,1.8s0.8,1.798,1.799,1.798h2.598
				c-0.899,10.094-8.994,18.288-19.188,19.188v-2.5C39.678,60.111,38.779,59.313,37.779,59.313z"/>
			<path fill="#FFFFFF" d="M30.485,12.542c-2.2-1.599-4.897-2.598-7.895-2.598c-7.295,0-13.291,5.896-13.291,13.291
				c0,1.799,0.399,3.498,0.999,5.097C14.495,20.437,21.79,14.64,30.485,12.542z"/>
			<path fill="#FFFFFF" d="M65.161,28.231c0.7-1.599,0.999-3.297,0.999-5.096c0-7.295-5.896-13.292-13.291-13.292
				c-2.898,0-5.696,1-7.895,2.598C53.869,14.64,61.165,20.437,65.161,28.231z"/>
		</g>
	</g>
</g>
</svg>
