<?xml version="1.0" encoding="UTF-8"?>
<!DOCTYPE svg PUBLIC "-//W3C//DTD SVG 1.1//EN" "http://www.w3.org/Graphics/SVG/1.1/DTD/svg11.dtd">
<!-- Creator: CorelDRAW X7 -->
<svg xmlns="http://www.w3.org/2000/svg" xml:space="preserve" width="86.3598mm" height="28.7866mm" version="1.1" style="shape-rendering:geometricPrecision; text-rendering:geometricPrecision; image-rendering:optimizeQuality; fill-rule:evenodd; clip-rule:evenodd"
viewBox="0 0 8636 2879"
 xmlns:xlink="http://www.w3.org/1999/xlink">
 <defs>
  <style type="text/css">
   <![CDATA[
    .fil0 {fill:#FEFEFE}
    .fil2 {fill:#FEFEFE;fill-rule:nonzero}
    .fil1 {fill:#FDF21D;fill-rule:nonzero}
   ]]>
  </style>
 </defs>
 <g id="Layer_x0020_1">
  <metadata id="CorelCorpID_0Corel-Layer"/>
  <g id="_2648646665648">
   <path class="fil0" d="M3348 1945l465 0c54,0 55,-9 78,-44 63,-95 326,-485 360,-513 24,26 142,351 157,407l-126 -2 -41 -114c-1,-2 -2,-5 -4,-7 -1,-3 -3,-5 -4,-7 -13,-18 -1,-5 -18,-20 -28,63 -143,144 -52,297l463 3 -330 -880 -38 42c-82,116 -461,680 -489,688l-142 -2c46,-102 540,-808 569,-878l-176 -1 -334 508c-54,84 -320,471 -338,523z"/>
   <path class="fil1" d="M31 1951l270 -1037 210 0 -119 460 542 -460 282 0 -497 404 247 633 -270 0 -159 -487 -214 174 -82 313 -210 0zm1044 0l269 -1037 210 0 -106 409 409 0 106 -409 210 0 -270 1037 -210 0 118 -453 -409 0 -117 453 -210 0zm1038 0l270 -1037 210 0 -270 1037 -210 0zm416 0l267 -1028 210 0 -222 853 520 0 -45 175 -730 0z"/>
   <g>
    <path class="fil1" d="M4981 914l382 0c86,0 150,7 191,20 56,18 100,50 131,96 32,45 50,101 55,168 6,66 -4,148 -30,245 -22,85 -52,159 -89,220 -46,76 -99,137 -159,184 -46,35 -102,63 -169,82 -50,15 -113,22 -190,22l-394 0 272 -1037zm164 176l-180 686 156 0c58,0 101,-3 129,-10 36,-8 68,-23 95,-43 28,-20 55,-54 81,-100 26,-46 50,-110 71,-190 21,-80 30,-141 27,-184 -3,-43 -14,-77 -33,-101 -19,-24 -47,-40 -84,-49 -27,-6 -83,-9 -168,-9l-94 0zm832 8l48 -184 199 0 -48 184 -199 0zm-223 853l197 -751 198 0 -196 751 -199 0z"/>
    <path class="fil2" d="M6333 1111l48 -184 681 0 -38 145c-71,55 -149,135 -234,238 -85,103 -158,213 -219,329 -61,117 -103,221 -126,312l-191 0c41,-143 108,-290 203,-439 95,-149 204,-283 329,-401l-453 0zm904 280c-46,-22 -75,-52 -89,-90 -13,-38 -14,-80 -2,-125 20,-77 64,-141 131,-192 67,-50 151,-76 250,-76 98,0 168,26 209,76 41,51 52,115 31,192 -12,48 -36,91 -71,129 -34,37 -77,66 -128,86 52,23 87,57 105,101 19,45 20,96 5,154 -25,96 -76,174 -153,234 -76,60 -165,90 -267,90 -94,0 -166,-25 -215,-74 -59,-59 -75,-139 -48,-242 15,-56 42,-107 82,-155 40,-47 93,-83 160,-108zm94 -200c-11,39 -8,70 9,93 16,22 43,33 80,33 38,0 70,-11 99,-34 28,-22 48,-53 58,-93 10,-37 6,-67 -10,-90 -16,-22 -43,-34 -79,-34 -39,0 -72,12 -100,34 -28,23 -48,53 -57,91zm-136 444c-14,56 -11,99 9,130 20,30 50,46 92,46 41,0 79,-15 113,-45 35,-29 59,-72 74,-128 13,-49 10,-89 -10,-119 -19,-29 -50,-44 -92,-44 -48,0 -89,17 -121,51 -33,33 -54,70 -65,109zm1408 -467l-199 21c6,-39 2,-68 -13,-87 -15,-19 -38,-28 -70,-28 -42,0 -82,18 -121,56 -39,38 -78,116 -116,235 64,-58 133,-87 207,-87 83,0 146,31 188,95 43,63 51,145 25,245 -28,106 -81,192 -161,256 -79,64 -167,96 -264,96 -105,0 -180,-41 -226,-122 -47,-82 -45,-215 3,-401 50,-191 121,-328 213,-412 93,-85 195,-127 307,-127 79,0 138,23 178,67 40,44 56,109 49,193zm-564 434c-17,65 -15,115 5,150 21,35 50,53 88,53 37,0 71,-14 103,-43 32,-29 57,-76 74,-142 18,-68 18,-117 0,-149 -19,-31 -48,-47 -87,-47 -39,0 -75,15 -109,45 -34,30 -59,75 -74,133z"/>
   </g>
  </g>
 </g>
</svg>
