<?xml version="1.0" encoding="UTF-8"?>
<!DOCTYPE svg PUBLIC "-//W3C//DTD SVG 1.1//EN" "http://www.w3.org/Graphics/SVG/1.1/DTD/svg11.dtd">
<!-- Creator: CorelDRAW X7 -->
<svg xmlns="http://www.w3.org/2000/svg" xml:space="preserve" width="21.1666mm" height="8.4666mm" version="1.1" style="shape-rendering:geometricPrecision; text-rendering:geometricPrecision; image-rendering:optimizeQuality; fill-rule:evenodd; clip-rule:evenodd"
viewBox="0 0 2117 847"
 xmlns:xlink="http://www.w3.org/1999/xlink">
 <defs>
  <style type="text/css">
   <![CDATA[
    .fil0 {fill:black}
   ]]>
  </style>
 </defs>
 <g id="Layer_x0020_1">
  <metadata id="CorelCorpID_0Corel-Layer"/>
  <g id="_2500972236384">
   <polygon class="fil0" points="421,310 591,310 591,258 360,259 360,577 596,576 596,526 420,526 420,439 534,438 534,388 420,387 "/>
   <path class="fil0" d="M1732 397c83,-23 97,115 32,134 -40,12 -67,-14 -71,-49 -7,-42 6,-75 39,-85zm-101 81c8,66 57,111 132,103 64,-8 107,-59 101,-131 -14,-151 -251,-133 -233,28l0 0z"/>
   <path class="fil0" d="M858 483c-17,-106 99,-117 110,-36 15,106 -98,113 -110,36zm171 -5c19,-160 -215,-179 -232,-30 -18,166 214,180 232,30z"/>
   <path class="fil0" d="M1152 351c0,49 -8,154 13,191 22,40 72,49 105,32 15,-8 12,-7 20,-17l8 -7 0 27 59 0 0 -226 -59 0c0,38 0,75 0,113 -1,33 -8,67 -43,68 -41,1 -44,-33 -44,-68 1,-38 0,-75 0,-113l-59 0z"/>
   <path class="fil0" d="M1950 577c9,-55 -23,-177 45,-180 65,-4 35,89 43,180l58 0c3,-30 0,-73 0,-104 0,-51 2,-130 -82,-127 -42,2 -50,24 -63,39l0 -34 -60 0 1 226 58 0 0 0z"/>
   <path class="fil0" d="M67 523c0,0 -32,67 -36,78 19,15 66,24 96,23 94,-2 171,-73 179,-183l-70 -2c-133,6 -152,59 -169,84l0 0z"/>
   <path class="fil0" d="M804 351l-54 0c-14,3 -39,131 -55,155l-53 -155 -62 0 88 226 55 0 81 -226z"/>
   <path class="fil0" d="M1380 398l32 1c4,42 -5,101 2,140 8,43 56,42 99,38l-1 -48c-26,-2 -42,7 -42,-24 0,-24 -2,-86 1,-107l44 0 0 -47 -45 -1 0 -74c-11,5 -49,25 -57,33l-2 42 -31 0 0 47z"/>
   <polygon class="fil0" points="1058,577 1117,577 1117,254 1057,254 "/>
   <polygon class="fil0" points="1544,577 1603,577 1603,351 1543,351 "/>
   <polygon class="fil0" points="1542,317 1604,317 1604,259 1543,259 "/>
   <path class="fil0" d="M217 417c1,0 74,-7 85,-8 4,-25 -12,-70 -28,-96 -49,-80 -149,-110 -248,-62l33 61c72,112 128,103 158,105z"/>
  </g>
 </g>
</svg>
