<?xml version="1.0" encoding="UTF-8"?>
<!DOCTYPE svg PUBLIC "-//W3C//DTD SVG 1.1//EN" "http://www.w3.org/Graphics/SVG/1.1/DTD/svg11.dtd">
<!-- Creator: CorelDRAW X7 -->
<svg xmlns="http://www.w3.org/2000/svg" xml:space="preserve" width="21.1666mm" height="8.4666mm" version="1.1" style="shape-rendering:geometricPrecision; text-rendering:geometricPrecision; image-rendering:optimizeQuality; fill-rule:evenodd; clip-rule:evenodd"
viewBox="0 0 2117 847"
 xmlns:xlink="http://www.w3.org/1999/xlink">
 <defs>
  <style type="text/css">
   <![CDATA[
    .fil0 {fill:black}
    .fil1 {fill:#F72442}
   ]]>
  </style>
 </defs>
 <g id="Layer_x0020_1">
  <metadata id="CorelCorpID_0Corel-Layer"/>
  <g id="_2500971868240">
   <path class="fil0" d="M405 331c-7,-3 -30,-17 -35,-22l-184 0 0 -89 69 0 -116 -120 -85 0 0 538 375 0 0 -124 -243 0 0 -85 219 0 0 -98 0 0z"/>
   <path class="fil0" d="M1334 554c5,11 30,33 41,41 4,2 9,5 13,7 43,25 105,24 149,3 10,-5 16,-11 25,-17 0,35 4,62 -14,80 -25,25 -80,21 -118,12 -13,-4 -23,-7 -36,-12 -11,-4 -22,-9 -33,-15l-30 -18 0 124c4,1 18,10 28,14 35,14 56,22 98,28 58,8 130,-3 171,-34 21,-15 36,-35 47,-58 12,-28 15,-54 15,-90 0,-28 0,-56 0,-84 -120,12 -236,13 -356,19l0 0z"/>
   <path class="fil0" d="M1300 393c21,5 43,8 64,12 11,2 22,3 32,5 11,2 23,5 33,6 2,-3 5,-31 26,-45 23,-17 57,-16 84,-1 6,3 18,11 21,15 3,5 2,8 2,15l0 54 96 18c12,2 22,3 32,5l0 -219 -110 0c-22,0 -18,-2 -18,20 -26,-18 -41,-28 -79,-31 -35,-3 -68,4 -92,16 -10,6 -24,14 -33,22 -10,10 -17,16 -26,28 -14,21 -29,54 -32,80l0 0z"/>
   <path class="fil0" d="M711 466c-20,-5 -42,-14 -62,-21 -11,-3 -20,-7 -31,-11 -9,-3 -20,-8 -30,-11l-30 30c-5,5 -8,6 -12,10 -14,14 -27,27 -41,41 -4,4 -7,5 -11,9 -24,25 -20,16 -20,42 0,27 0,55 0,83l351 0 0 -107 -179 0 65 -65z"/>
   <path class="fil0" d="M616 396l105 19c6,1 31,5 35,7 19,-13 38,-38 53,-52 16,-13 11,-3 11,-53 0,-14 0,-28 0,-42 0,-14 2,-16 -4,-17l-317 0c-26,0 -23,-5 -23,20 0,28 0,56 0,85l172 0 -32 33z"/>
   <path class="fil0" d="M1245 551c-58,-4 -127,-10 -188,-15 -61,-7 -117,-18 -176,-27 0,43 12,83 47,109 51,41 123,43 176,5 5,-3 10,-9 15,-12l0 27c31,0 92,1 120,0 10,0 6,-6 6,-33 0,-19 0,-36 0,-54l0 0z"/>
   <path class="fil0" d="M1334 554c68,4 203,-3 272,-9 28,-3 56,-4 84,-7l0 -61c-38,-10 -88,-18 -128,-26 0,7 0,16 0,22 0,7 -1,8 -5,11 -42,38 -116,36 -127,-35 -3,-14 -1,-19 -1,-33 -29,-14 -89,-23 -129,-23 -6,28 -2,67 3,92 2,12 8,27 12,38 3,7 13,26 19,31l0 0z"/>
   <path class="fil1" d="M1888 129c0,12 3,26 7,35 6,14 17,26 29,35 35,26 83,21 112,-9 30,-30 35,-73 11,-109 -9,-13 -21,-23 -35,-30 -23,-12 -49,-10 -73,0 -7,3 -13,7 -19,12 -2,2 -3,3 -6,5 -4,4 -15,19 -18,25 -4,9 -8,23 -8,36z"/>
   <path class="fil0" d="M1754 410l31 5c13,3 89,17 97,17l0 -170c-1,-6 -7,-4 -15,-4l-113 0 0 152z"/>
   <path class="fil0" d="M429 196l0 -96 4 0 -294 0c2,7 22,29 29,36 4,4 10,14 19,20l-1 -3c4,3 201,36 227,41 5,1 10,2 16,2z"/>
   <path class="fil0" d="M1112 507l133 26 0 -153 -128 -22 0 135c0,10 -1,9 -5,14l0 0z"/>
   <path class="fil0" d="M881 459l63 11c11,2 22,4 32,5 9,2 24,5 33,5l0 -141c-40,-10 -87,-14 -128,-20l0 140z"/>
   <path class="fil0" d="M1754 525l0 113 116 0c9,0 12,2 12,-5l0 -135c-37,2 -89,14 -128,27z"/>
   <path class="fil0" d="M1117 361l128 23c0,-14 2,-122 -1,-125 -3,-3 -113,-1 -127,-1l0 103z"/>
   <path class="fil0" d="M1754 525c43,-7 89,-23 128,-27l0 -66c-28,-11 -97,-24 -128,-22l0 115z"/>
   <path class="fil0" d="M881 509c112,28 248,42 364,42l0 -21 -133 -23c-7,7 -9,13 -26,21 -31,15 -77,5 -77,-48 -29,-9 -92,-23 -128,-21l0 50 0 0z"/>
   <path class="fil0" d="M881 319c21,5 42,8 64,12 11,2 22,4 32,5 10,2 22,4 32,6l0 -79c-1,-6 -2,-5 -8,-5l-120 0 0 61z"/>
   <path class="fil0" d="M187 149c4,7 24,32 31,39 5,5 31,27 34,32l181 0 -4 0 0 -24c-36,-9 -243,-49 -242,-47z"/>
   <path class="fil0" d="M588 423c33,20 80,31 123,43l45 -44c-14,-7 -119,-22 -140,-26 -5,4 -8,9 -14,13 -5,4 -10,8 -14,14l0 0z"/>
   <path class="fil0" d="M405 335l0 -26 -35 0c4,10 28,22 35,26z"/>
  </g>
 </g>
</svg>
