<?xml version="1.0" encoding="UTF-8"?>
<!DOCTYPE svg PUBLIC "-//W3C//DTD SVG 1.1//EN" "http://www.w3.org/Graphics/SVG/1.1/DTD/svg11.dtd">
<!-- Creator: CorelDRAW X7 -->
<svg xmlns="http://www.w3.org/2000/svg" xml:space="preserve" width="43.3492mm" height="43.3492mm" version="1.1" style="shape-rendering:geometricPrecision; text-rendering:geometricPrecision; image-rendering:optimizeQuality; fill-rule:evenodd; clip-rule:evenodd"
viewBox="0 0 4335 4335"
 xmlns:xlink="http://www.w3.org/1999/xlink">
 <defs>
  <style type="text/css">
   <![CDATA[
    .fil0 {fill:#FEFEFE}
   ]]>
  </style>
 </defs>
 <g id="Layer_x0020_1">
  <metadata id="CorelCorpID_0Corel-Layer"/>
  <g id="_1792118041536">
   <path class="fil0" d="M658 2415l0 1278c0,83 75,157 157,157l1023 0 0 -1006 659 0 0 1006 1023 0c45,0 79,-22 105,-44 21,-17 51,-62 51,-97l0 -1294c0,-23 -47,-49 -84,-81 -33,-28 -60,-51 -94,-78l-570 -470c-157,-140 -403,-325 -569,-470l-192 -155c-33,23 -59,48 -91,74l-285 234c-65,55 -124,103 -190,157 -34,27 -63,50 -95,78 -169,148 -408,326 -569,470l-258 212c-14,13 -21,4 -21,29z"/>
   <path class="fil0" d="M56 2176c0,48 3,60 40,101 22,24 35,41 57,66 107,114 110,194 276,49 46,-39 87,-75 135,-113l265 -221c45,-40 90,-75 136,-112l1133 -945c29,-22 39,-34 69,-54l798 662c46,39 91,72 136,111 45,40 87,75 135,113l265 221c118,105 280,227 396,330 22,20 44,38 67,57 107,89 168,-47 271,-160 25,-28 39,-52 43,-74l0 -37c-12,-57 -84,-96 -134,-141 -25,-22 -49,-42 -76,-63l-154 -127c-31,-26 -208,-183 -238,-191l0 -915c0,-101 26,-239 -74,-239l-536 0c-35,0 -62,45 -66,90l0 495 -570 -476c-106,-93 -143,-118 -287,-118 -137,0 -255,135 -364,222 -261,206 -578,478 -838,696l-836 697c-23,18 -49,39 -49,76z"/>
  </g>
 </g>
</svg>
