<?xml version="1.0" encoding="UTF-8"?>
<!DOCTYPE svg PUBLIC "-//W3C//DTD SVG 1.1//EN" "http://www.w3.org/Graphics/SVG/1.1/DTD/svg11.dtd">
<!-- Creator: CorelDRAW X7 -->
<svg xmlns="http://www.w3.org/2000/svg" xml:space="preserve" width="43.3492mm" height="43.3492mm" version="1.1" style="shape-rendering:geometricPrecision; text-rendering:geometricPrecision; image-rendering:optimizeQuality; fill-rule:evenodd; clip-rule:evenodd"
viewBox="0 0 4335 4335"
 xmlns:xlink="http://www.w3.org/1999/xlink">
 <defs>
  <style type="text/css">
   <![CDATA[
    .fil0 {fill:#FEFEFE}
   ]]>
  </style>
 </defs>
 <g id="Layer_x0020_1">
  <metadata id="CorelCorpID_0Corel-Layer"/>
  <g id="_1792122584832">
   <path class="fil0" d="M501 2192c-8,-44 29,-315 41,-372 22,-108 60,-227 102,-318 12,-26 20,-44 30,-69 95,-213 337,-483 528,-618 182,-129 355,-208 571,-263 211,-53 230,-25 373,-47 35,-6 156,6 189,10 343,45 611,146 881,364 23,18 34,33 57,51 23,18 34,30 55,52 111,111 191,210 272,347 98,164 129,267 181,445 14,47 28,127 34,173 8,64 8,140 17,198 9,65 -25,301 -39,370 -61,306 -221,595 -440,813 -124,125 -193,181 -346,273 -44,27 -92,56 -140,75 -138,56 -135,64 -305,107 -359,90 -722,47 -1059,-93 -45,-19 -96,-45 -138,-68l-408 -318 -141 -173c-60,-79 -111,-175 -155,-265 -91,-182 -147,-422 -151,-625 -1,-36 -5,-31 -9,-49zm3778 -122l0 194c-6,151 -28,300 -64,441 -18,71 -39,130 -61,196l-73 174c-182,361 -287,460 -550,711 -299,285 -883,493 -1273,493l-198 0c-270,0 -656,-111 -891,-247 -125,-72 -181,-101 -300,-195 -24,-19 -47,-35 -69,-55 -141,-131 -175,-157 -306,-321 -60,-75 -103,-143 -153,-226 -18,-29 -28,-51 -44,-79 -37,-61 -90,-193 -117,-263 -112,-280 -124,-516 -124,-816 0,-234 57,-441 124,-643l74 -174c183,-362 482,-725 844,-921 131,-71 198,-108 343,-161 316,-114 498,-122 834,-122 270,0 656,111 891,247 215,124 323,196 497,369 149,150 340,400 417,589 60,148 89,191 135,369 36,141 58,290 64,440z"/>
   <path class="fil0" d="M1681 1508l0 1319c0,144 133,209 250,135 25,-15 44,-30 68,-47 268,-194 575,-405 831,-597 64,-47 96,-67 96,-159 0,-74 -45,-104 -91,-139 -46,-34 -94,-68 -140,-100l-691 -496c-22,-16 -47,-35 -68,-48 -72,-47 -159,-47 -215,15 -26,28 -40,65 -40,117z"/>
  </g>
 </g>
</svg>
