<?xml version="1.0" encoding="UTF-8"?>
<!DOCTYPE svg PUBLIC "-//W3C//DTD SVG 1.1//EN" "http://www.w3.org/Graphics/SVG/1.1/DTD/svg11.dtd">
<!-- Creator: CorelDRAW X7 -->
<svg xmlns="http://www.w3.org/2000/svg" xml:space="preserve" width="5.5032mm" height="5.5032mm" version="1.1" style="shape-rendering:geometricPrecision; text-rendering:geometricPrecision; image-rendering:optimizeQuality; fill-rule:evenodd; clip-rule:evenodd"
viewBox="0 0 550 550"
 xmlns:xlink="http://www.w3.org/1999/xlink">
 <defs>
  <style type="text/css">
   <![CDATA[
    .str0 {stroke:#9B9B9B;stroke-width:26.46}
    .fil0 {fill:none}
    .fil1 {fill:#9B9B9B}
   ]]>
  </style>
 </defs>
 <g id="Layer_x0020_1">
  <metadata id="CorelCorpID_0Corel-Layer"/>
  <g id="_2501149948656">
   <circle class="fil0 str0" cx="275" cy="275" r="247"/>
   <path class="fil1" d="M173 267l35 0 0 25 -35 0 0 40 -27 0 0 -40 -35 0 0 -25 35 0 0 -38 27 0 0 38zm118 79l-28 0 0 -108 -33 11 0 -23 58 -21 3 0 0 141zm137 -103c0,6 -2,12 -5,18 -3,5 -8,9 -14,12 7,4 12,8 16,14 4,6 6,12 6,20 0,13 -4,23 -13,30 -8,7 -20,11 -34,11 -15,0 -26,-4 -35,-11 -8,-8 -13,-17 -13,-30 0,-8 2,-14 6,-20 4,-6 10,-10 16,-14 -6,-3 -10,-7 -14,-12 -3,-6 -5,-12 -5,-18 0,-12 4,-22 12,-29 8,-7 19,-11 33,-11 13,0 24,4 32,11 8,7 12,17 12,29zm-25 62c0,-6 -2,-11 -5,-14 -4,-4 -8,-6 -14,-6 -6,0 -11,2 -15,6 -3,3 -5,8 -5,14 0,6 2,11 5,15 4,3 9,5 15,5 6,0 11,-2 14,-5 3,-4 5,-9 5,-15zm-3 -61c0,-5 -1,-10 -4,-13 -3,-3 -7,-5 -12,-5 -6,0 -10,1 -12,5 -3,3 -5,7 -5,13 0,6 2,10 5,13 2,4 6,6 12,6 5,0 9,-2 12,-6 3,-3 4,-7 4,-13z"/>
  </g>
 </g>
</svg>
