<svg width="36" height="36" viewBox="0 0 36 36" fill="none" xmlns="http://www.w3.org/2000/svg">
<circle cx="18" cy="18" r="17.5" stroke="#9B9B9B"/>
<path d="M10.7441 17.4287H13.2119V19.2129H10.7441V22.002H8.86426V19.2129H6.38965V17.4287H8.86426V14.7559H10.7441V17.4287ZM19.1182 23H17.1426V15.3848L14.7842 16.1162V14.5098L18.9062 13.0332H19.1182V23ZM28.8457 15.6924C28.8457 16.1755 28.7249 16.6038 28.4834 16.9775C28.2419 17.3512 27.9092 17.6497 27.4854 17.873C27.9684 18.1055 28.3512 18.4268 28.6338 18.8369C28.9163 19.2425 29.0576 19.721 29.0576 20.2725C29.0576 21.1566 28.7568 21.8561 28.1553 22.3711C27.5537 22.8815 26.7357 23.1367 25.7012 23.1367C24.6667 23.1367 23.8464 22.8792 23.2402 22.3643C22.6341 21.8493 22.3311 21.152 22.3311 20.2725C22.3311 19.721 22.4723 19.2402 22.7549 18.8301C23.0374 18.4199 23.418 18.1009 23.8965 17.873C23.4727 17.6497 23.14 17.3512 22.8984 16.9775C22.6615 16.6038 22.543 16.1755 22.543 15.6924C22.543 14.8447 22.8255 14.1702 23.3906 13.6689C23.9557 13.1631 24.7236 12.9102 25.6943 12.9102C26.6605 12.9102 27.4261 13.1608 27.9912 13.6621C28.5609 14.1589 28.8457 14.8356 28.8457 15.6924ZM27.0752 20.1289C27.0752 19.696 26.9499 19.3496 26.6992 19.0898C26.4486 18.8301 26.1113 18.7002 25.6875 18.7002C25.2682 18.7002 24.9333 18.8301 24.6826 19.0898C24.432 19.3451 24.3066 19.6914 24.3066 20.1289C24.3066 20.5527 24.4297 20.8945 24.6758 21.1543C24.9219 21.4141 25.2637 21.5439 25.7012 21.5439C26.1296 21.5439 26.4645 21.4186 26.7061 21.168C26.9521 20.9173 27.0752 20.571 27.0752 20.1289ZM26.8701 15.7881C26.8701 15.4007 26.7676 15.0908 26.5625 14.8584C26.3574 14.6214 26.068 14.5029 25.6943 14.5029C25.3252 14.5029 25.0381 14.6169 24.833 14.8447C24.6279 15.0726 24.5254 15.387 24.5254 15.7881C24.5254 16.1846 24.6279 16.5036 24.833 16.7451C25.0381 16.9867 25.3275 17.1074 25.7012 17.1074C26.0749 17.1074 26.362 16.9867 26.5625 16.7451C26.7676 16.5036 26.8701 16.1846 26.8701 15.7881Z" fill="#9B9B9B"/>
</svg>
