<?xml version="1.0" encoding="utf-8"?>
<!-- Generator: Adobe Illustrator 16.0.0, SVG Export Plug-In . SVG Version: 6.00 Build 0)  -->
<!DOCTYPE svg PUBLIC "-//W3C//DTD SVG 1.1//EN" "http://www.w3.org/Graphics/SVG/1.1/DTD/svg11.dtd">
<svg version="1.1" id="Layer_1" xmlns="http://www.w3.org/2000/svg" xmlns:xlink="http://www.w3.org/1999/xlink" x="0px" y="0px"
	 width="512px" height="512px" viewBox="0 0 512 512" enable-background="new 0 0 512 512" xml:space="preserve">
<g>
	<path fill="#FCFCFC" d="M313.047,100.428c52.577,0,105.155-0.016,157.733,0.01c21.05,0.009,34.28,12.768,34.294,32.947
		c0.013,20.115-13.384,33.221-34.192,33.228c-105.71,0.029-211.419,0.04-317.127-0.014c-17.978-0.01-30.389-10.732-32.618-27.733
		c-2.309-17.605,6.653-33.149,21.869-37.24c3.925-1.057,8.194-1.144,12.306-1.149C207.89,100.405,260.467,100.43,313.047,100.428z"
		/>
	<path fill="#FCFCFC" d="M312.943,412.669c-52.854,0-105.709-0.143-158.563,0.104c-12.778,0.057-22.862-4.15-29.071-15.424
		c-6.639-12.054-6.456-24.477,0.575-36.354c6.407-10.826,16.515-14.61,28.802-14.585c67.797,0.137,135.596,0.063,203.394,0.063
		c37.911,0,75.823,0.1,113.734-0.056c13.126-0.054,23.3,4.942,29.251,16.671c6.368,12.549,5.69,25.145-2.334,36.923
		c-6.297,9.237-15.332,12.757-26.396,12.728C419.206,412.586,366.074,412.669,312.943,412.669z"/>
	<path fill="#FCFCFC" d="M312.28,289.657c-52.58,0-105.16-0.128-157.739,0.087c-13.085,0.055-23.367-4.368-29.532-16.094
		c-6.402-12.174-6.047-24.542,1.248-36.311c6.051-9.762,15.174-13.964,26.596-13.932c35.144,0.098,70.29,0.034,105.433,0.034
		c71.124,0,142.243,0.091,213.363-0.082c13.17-0.032,23.278,4.788,29.325,16.476c6.487,12.538,5.805,25.16-2.135,36.934
		c-6.418,9.516-15.806,12.998-27.162,12.963C418.547,289.563,365.413,289.657,312.28,289.657z"/>
	<path fill="#FCFCFC" d="M48.451,175.373c-23.495-0.053-42.01-18.734-41.865-42.24c0.143-23.063,18.527-41.456,41.667-41.686
		c23.216-0.229,42.319,18.625,42.445,41.893C90.823,156.507,71.807,175.425,48.451,175.373z"/>
	<path fill="#FCFCFC" d="M48.362,298.477c-23.513-0.117-41.943-18.791-41.772-42.33c0.169-23.396,19.12-41.882,42.577-41.532
		c23.031,0.343,41.516,19.004,41.528,41.92C90.707,279.771,71.709,298.596,48.362,298.477z"/>
	<path fill="#FCFCFC" d="M49.506,337.742c22.933,0.431,41.522,19.492,41.193,42.24c-0.338,23.359-19.486,42.054-42.672,41.658
		c-23.534-0.396-41.739-19.169-41.437-42.729C6.889,355.547,25.91,337.302,49.506,337.742z"/>
</g>
</svg>
