<?xml version="1.0" encoding="UTF-8"?>
<!DOCTYPE svg PUBLIC "-//W3C//DTD SVG 1.1//EN" "http://www.w3.org/Graphics/SVG/1.1/DTD/svg11.dtd">
<!-- Creator: CorelDRAW X7 -->
<svg xmlns="http://www.w3.org/2000/svg" xml:space="preserve" width="21.1666mm" height="8.4666mm" version="1.1" style="shape-rendering:geometricPrecision; text-rendering:geometricPrecision; image-rendering:optimizeQuality; fill-rule:evenodd; clip-rule:evenodd"
viewBox="0 0 2117 847"
 xmlns:xlink="http://www.w3.org/1999/xlink">
 <defs>
  <style type="text/css">
   <![CDATA[
    .fil1 {fill:#2B2A29}
    .fil0 {fill:#F08F20}
   ]]>
  </style>
 </defs>
 <g id="Layer_x0020_1">
  <metadata id="CorelCorpID_0Corel-Layer"/>
  <g id="_2500966117888">
   <path class="fil0" d="M1670 290c153,-21 285,91 302,226 30,236 -255,380 -442,233 -116,-93 -132,-260 -34,-369 43,-48 97,-79 174,-90zm-270 283c15,158 158,279 329,266 119,-10 217,-85 258,-188 47,-117 7,-248 -84,-322 -214,-175 -528,-10 -503,244z"/>
   <path class="fil0" d="M1549 205l-21 -25c-7,-8 -17,-16 -27,-23 -19,-11 -50,-24 -76,-23 21,18 37,21 65,56 14,17 25,36 35,56l7 17c0,0 1,2 2,2l2 4c70,-32 54,-31 146,-42 -2,-25 -13,-35 -10,-91 3,-47 18,-67 21,-81 -15,6 -35,33 -43,48 -16,28 -13,41 -17,76l-46 -91c-8,-13 -15,-27 -26,-42 -6,-9 -21,-36 -32,-39 -3,98 8,115 20,198l0 0z"/>
   <path class="fil0" d="M1728 332c-89,24 -10,135 85,113 87,-21 6,-138 -85,-113z"/>
   <path class="fil1" d="M787 602l-27 -59c-7,-17 -21,-43 -25,-60l-33 0 0 154 26 0c2,-21 -5,-101 2,-112l44 112 24 0 45 -112 2 112 26 0 0 -154 -31 -1c-11,15 -45,112 -53,120z"/>
   <path class="fil1" d="M685 552l-82 0 -1 19 59 0c4,15 -16,46 -55,45 -68,-2 -69,-106 -6,-113 15,-2 31,2 41,10 22,18 -2,16 39,17 -4,-42 -59,-60 -100,-47 -36,10 -62,49 -50,97 21,87 162,80 155,-28l0 0z"/>
   <path class="fil1" d="M272 503c79,-12 68,45 41,52 -9,2 -31,3 -42,0l1 -52zm-27 134l26 0 0 -62c22,0 16,-6 36,26 8,12 18,25 23,36l29 0c-5,-18 -36,-47 -39,-64 17,-6 28,-7 35,-25 12,-26 2,-65 -47,-68 -15,-1 -47,-1 -63,1l0 156 0 0z"/>
   <path class="fil1" d="M1345 584c-28,51 -101,37 -101,-25 0,-63 72,-78 101,-26l26 -1c-1,-18 -19,-34 -29,-41 -17,-11 -39,-15 -61,-12 -37,6 -64,36 -64,80 0,110 148,93 154,25l-26 0 0 0z"/>
   <path class="fil1" d="M421 583c0,-6 9,-28 11,-34l16 -36c4,15 24,60 24,71l-51 -1zm-23 54c8,-10 8,-24 15,-34l68 0 13 34 28 -1 -61 -154 -30 1 -59 154 26 0z"/>
   <path class="fil1" d="M1772 514c4,5 25,63 26,69l-53 0 24 -66c3,-4 1,-1 3,-3zm-49 123c8,-10 9,-34 19,-34 83,0 60,-6 77,34l28 0 -61 -154 -30 0 -58 154 25 0z"/>
   <path class="fil1" d="M941 583c0,-5 21,-64 25,-70 3,4 26,62 26,70l-51 0zm-50 53l28 1 12 -33 69 -1 13 34 27 0 -58 -154 -31 0 -60 153z"/>
   <path class="fil1" d="M1498 501c27,-1 58,-5 58,28 -1,31 -32,27 -59,27l1 -55zm0 78c6,-3 12,-3 19,-3 6,0 11,0 17,0 67,-7 63,-87 7,-95 -11,-2 -59,-2 -70,0l0 156 26 -1 1 -57 0 0z"/>
   <path class="fil1" d="M136 555l0 -52c26,-4 67,-4 58,34 -5,20 -36,23 -58,18zm-26 81l26 1c0,-19 -4,-43 1,-59l8 -1c15,-2 35,3 54,-8 34,-19 32,-79 -17,-87 -13,-3 -60,-3 -72,-1l0 155 0 0z"/>
   <path class="fil1" d="M1848 480l-29 0c1,8 31,61 36,69 29,51 14,32 18,88l26 0c1,-17 -2,-37 0,-53 1,-14 50,-89 53,-104l-29 0 -36 71c-9,-6 -32,-59 -39,-71z"/>
   <polygon class="fil1" points="1037,500 1083,502 1083,637 1109,636 1110,501 1155,500 1154,480 1037,481 "/>
   <polygon class="fil1" points="1602,637 1685,636 1685,617 1629,617 1628,480 1602,481 "/>
   <polygon class="fil1" points="1170,637 1196,637 1196,481 1169,481 "/>
  </g>
 </g>
</svg>
