<svg height="512" viewBox="0 0 57 59" width="512" xmlns="http://www.w3.org/2000/svg"><g id="Page-1" fill="none" fill-rule="evenodd"><g id="024---Auction" fill-rule="nonzero"><path id="Shape" d="m55 5c0 3 1 4 1 4h-6v-4h-10v4h-20c-2.209139 0-4-1.790861-4-4s1.790861-4 4-4h36s-1 1-1 4z" fill="#f5efca"/><path id="Shape" d="m56 9v38c0 .5522847-.4477153 1-1 1h-34v-3c-.0032948-1.1032019-.8967981-1.9967052-2-2v-12h7v1c0 .5522847.4477153 1 1 1h2c1.6568542 0 3-1.3431458 3-3v-14c0-1.6568542-1.3431458-3-3-3h-2c-.5522847 0-1 .4477153-1 1v1h-10v-10c0 2.209139 1.790861 4 4 4h20v21l5-5 5 5v-21z" fill="#e64c3c"/><path id="Shape" d="m22 6h-1c-.5522847 0-1-.44771525-1-1s.4477153-1 1-1h1c.5522847 0 1 .44771525 1 1s-.4477153 1-1 1z" fill="#cbb292"/><path id="Shape" d="m36 6h-10c-.5522847 0-1-.44771525-1-1s.4477153-1 1-1h10c.5522847 0 1 .44771525 1 1s-.4477153 1-1 1z" fill="#cbb292"/><path id="Rectangle-path" d="m13 28h6v18h-6z" fill="#f29c1f"/><path id="Shape" d="m21 45v9c0 2.7614237-2.2385763 5-5 5s-5-2.2385763-5-5v-9c.0032948-1.1032019.8967981-1.9967052 2-2h6c1.1032019.0032948 1.9967052.8967981 2 2z" fill="#805333"/><rect id="Rectangle-path" fill="#f5efca" height="4" rx="1" width="12" x="32" y="36"/><path id="Shape" d="m42 45h-8c-.5522847 0-1-.4477153-1-1s.4477153-1 1-1h8c.5522847 0 1 .4477153 1 1s-.4477153 1-1 1z" fill="#fff"/><path id="Shape" d="m55.4 2h.72c.289877-.06962325.5350203-.26211705.6714087-.52721s.1504788-.57646183.0385913-.85279c-.150513-.37577065-.5152095-.62154441-.92-.62h-34.91c-2.7614237 0-5 2.23857625-5 5s2.2385763 5 5 5h34.91c.3916134-.00649192.7433869-.24100763.9-.6.1393629-.30508461.1133742-.66019769-.0689206-.94174203-.1822949-.28154433-.4956792-.45057393-.8310794-.44825797v-.01h-34.91c-1.6568542 0-3-1.34314575-3-3s1.3431458-3 3-3z" fill="#c03a2b"/><path id="Shape" d="m50 6v24l-5-5-5 5v-24c0-.55228475.4477153-1 1-1h8c.5522847 0 1 .44771525 1 1z" fill="#f3d55b"/><path id="Rectangle-path" d="m4 15h24v16h-24z" fill="#a56a43"/><path id="Shape" d="m11 20h-1c-.55228475 0-1-.4477153-1-1s.44771525-1 1-1h1c.5522847 0 1 .4477153 1 1s-.4477153 1-1 1z" fill="#cf976a"/><path id="Shape" d="m22 20h-7c-.5522847 0-1-.4477153-1-1s.4477153-1 1-1h7c.5522847 0 1 .4477153 1 1s-.4477153 1-1 1z" fill="#cf976a"/><g fill="#cb8252"><path id="Shape" d="m6 14v18c0 .5522847-.44771525 1-1 1h-2c-1.65685425 0-3-1.3431458-3-3v-14c0-1.6568542 1.34314575-3 3-3h2c.55228475 0 1 .4477153 1 1z"/><path id="Shape" d="m32 16v14c0 1.6568542-1.3431458 3-3 3h-2c-.5522847 0-1-.4477153-1-1v-18c0-.5522847.4477153-1 1-1h2c1.6568542 0 3 1.3431458 3 3z"/></g></g></g></svg>