<svg id="Capa_1" enable-background="new 0 0 510.586 510.586" height="512" viewBox="0 0 510.586 510.586" width="512" xmlns="http://www.w3.org/2000/svg"><g><g><circle cx="260.906" cy="105.508" fill="#ade194" r="67.956"/><path d="m229.566 105.508c0-31.185 21.014-57.445 49.648-65.44-5.827-1.627-11.962-2.516-18.308-2.516-37.531 0-67.956 30.425-67.956 67.956s30.425 67.957 67.956 67.957c6.346 0 12.481-.889 18.308-2.516-28.635-7.996-49.648-34.256-49.648-65.441z" fill="#97da7b"/><g><g id="XMLID_559_"><g><path d="m386.237 212.654c0-6.91 2.8-13.16 7.33-17.68 4.52-4.53 10.78-7.33 17.68-7.33 13.82 0 25.02 11.2 25.02 25.01v46.11 154.85c0 5.145-1.363 10.198-3.951 14.644l-12.049 20.706v44.454c0 4.791-3.866 8.684-8.656 8.719l-123.422.885c-4.84.035-8.781-3.879-8.781-8.719v-37.538l-50.96-47.39c-2.81-2.62-5.14-5.7-6.9-9.11l-60.4-117.42c-1.6-2.97-2.37-6.2-2.37-9.4 0-5.72 2.47-11.34 7.1-15.21 7.68-6.43 18.94-6.13 26.26.69l44 41v-174.33c0-6.91 2.8-13.16 7.33-17.69 4.624-4.624 11.069-7.448 18.167-7.316 13.719.256 24.533 11.848 24.533 25.569v86.496c0-13.81 11.2-25.01 25.02-25.01 6.91 0 13.16 2.8 17.69 7.33 4.53 4.52 7.33 10.77 7.33 17.68 0-13.81 11.2-25.01 25.01-25.01 6.91 0 13.17 2.8 17.69 7.33 4.529 4.52 7.329 10.77 7.329 17.68z" fill="#ffcebf"/><g fill="#ffb09e"><path d="m304.948 494.302v-37.539l-50.96-47.39c-2.81-2.62-5.14-5.7-6.9-9.11l-60.4-117.42c-1.6-2.97-2.37-6.2-2.37-9.4 0-5.7 2.455-11.301 7.054-15.169-7.322-6.164-18.074-6.253-25.495-.041-4.63 3.87-7.1 9.49-7.1 15.21 0 3.2.77 6.43 2.37 9.4l60.4 117.42c1.76 3.41 4.09 6.49 6.9 9.11l50.96 47.39v37.539c0 4.84 3.942 8.753 8.781 8.719l23.757-.17c-3.988-.799-6.997-4.32-6.997-8.549z"/><path d="m247.158 299.924c8.019 0 14.52-6.501 14.52-14.52v-159.81c0-6.91 2.8-13.16 7.33-17.69 1.444-1.444 3.066-2.713 4.83-3.771-3.579-2.17-7.735-3.462-12.203-3.545-7.099-.132-13.543 2.692-18.167 7.316-4.53 4.53-7.33 10.78-7.33 17.69v174.33z"/></g></g></g></g></g><g><path d="m233.56 403.881c-2.181-2.03-3.978-4.401-5.339-7.048l-12.419-24.141c-1.896-3.684-6.417-5.133-10.101-3.238-3.683 1.895-5.133 6.417-3.238 10.1l12.419 24.141c2.158 4.195 5.004 7.952 8.46 11.168l48.561 45.173v43.051c0 4.143 3.357 7.5 7.5 7.5s7.5-3.357 7.5-7.5v-46.317c0-2.083-.866-4.072-2.392-5.491z"/><path d="m201.118 344.149-33.304-64.737c-.021-.041-.043-.082-.065-.123-2.76-5.129-1.522-11.566 2.943-15.306 4.765-3.991 11.787-3.806 16.335.433l44 40.999c2.185 2.035 5.367 2.581 8.105 1.39 2.737-1.19 4.508-3.892 4.508-6.877v-96.307c0-4.143-3.358-7.5-7.5-7.5s-7.5 3.357-7.5 7.5v79.066l-31.387-29.246c-10.075-9.388-25.634-9.8-36.191-.958-9.875 8.27-12.625 22.493-6.557 33.847l33.275 64.681c1.331 2.586 3.955 4.071 6.676 4.071 1.155 0 2.327-.269 3.425-.833 3.681-1.895 5.131-6.417 3.237-10.1z"/><path d="m411.25 180.14c-10.05 0-19.047 4.584-25.017 11.769-5.969-7.185-14.967-11.769-25.016-11.769s-19.046 4.584-25.016 11.769c-5.969-7.185-14.967-11.769-25.016-11.769-6.447 0-12.456 1.894-17.516 5.143v-59.688c0-17.929-14.587-32.516-32.517-32.516-17.929 0-32.515 14.587-32.515 32.516v46.063c0 4.143 3.358 7.5 7.5 7.5s7.5-3.357 7.5-7.5v-46.063c0-9.658 7.858-17.516 17.516-17.516s17.516 7.857 17.516 17.516v133.213c0 4.143 3.357 7.5 7.5 7.5s7.5-3.357 7.5-7.5v-46.152c0-9.658 7.857-17.516 17.516-17.516s17.516 7.857 17.516 17.516v46.11c0 4.143 3.357 7.5 7.5 7.5s7.5-3.357 7.5-7.5v-46.11c0-9.658 7.857-17.516 17.516-17.516s17.516 7.857 17.516 17.516v46.11c0 4.143 3.357 7.5 7.5 7.5s7.5-3.357 7.5-7.5v-46.11c0-9.658 7.858-17.516 17.517-17.516s17.516 7.857 17.516 17.516v200.96c0 3.819-1.016 7.584-2.937 10.885l-12.043 20.696c-.666 1.146-1.018 2.447-1.018 3.772v53.103c0 4.143 3.357 7.5 7.5 7.5s7.5-3.357 7.5-7.5v-51.079l11.025-18.948c3.253-5.59 4.972-11.962 4.972-18.429v-200.96c.001-17.929-14.585-32.516-32.515-32.516z"/><path d="m323.063 105.508c0 13.801-4.439 26.876-12.84 37.813-2.522 3.285-1.905 7.993 1.38 10.517 1.362 1.046 2.969 1.552 4.563 1.552 2.251 0 4.478-1.009 5.954-2.932 10.431-13.58 15.943-29.815 15.943-46.949 0-11.845-2.623-23.222-7.796-33.814-1.816-3.723-6.307-5.268-10.03-3.448-3.722 1.817-5.266 6.309-3.448 10.03 4.163 8.524 6.274 17.686 6.274 27.231z"/><path d="m200.244 153.162c1.48 1.882 3.679 2.863 5.9 2.863 1.623 0 3.257-.524 4.632-1.605 3.256-2.561 3.819-7.275 1.258-10.531-8.692-11.051-13.286-24.322-13.286-38.381 0-34.274 27.884-62.158 62.158-62.158 13.789 0 26.856 4.434 37.788 12.821 3.285 2.521 7.995 1.9 10.516-1.385 2.521-3.286 1.901-7.994-1.385-10.516-13.575-10.416-29.799-15.92-46.919-15.92-42.545 0-77.158 34.613-77.158 77.158 0 17.455 5.704 33.933 16.496 47.654z"/><path d="m186.898 209.624c1.319.939 2.838 1.392 4.344 1.392 2.344 0 4.653-1.097 6.116-3.151 2.403-3.374 1.615-8.057-1.759-10.459-29.695-21.144-47.423-55.497-47.423-91.897 0-36.399 17.729-70.754 47.423-91.897 3.375-2.402 4.162-7.085 1.759-10.46-2.402-3.374-7.085-4.162-10.459-1.759-33.64 23.952-53.723 62.874-53.723 104.116-.001 41.242 20.082 80.164 53.722 104.115z"/><path d="m326.212 13.61c29.695 21.144 47.424 55.498 47.424 91.897 0 14.534-2.725 28.679-8.098 42.039-1.546 3.844.316 8.212 4.159 9.757.918.369 1.864.544 2.797.544 2.971 0 5.784-1.778 6.96-4.703 6.093-15.148 9.182-31.176 9.182-47.637 0-41.242-20.083-80.164-53.723-104.116-3.377-2.403-8.059-1.615-10.46 1.759-2.402 3.375-1.615 8.058 1.759 10.46z"/><path d="m88.766 58.479c1.478 1.587 3.481 2.39 5.491 2.39 1.83 0 3.664-.666 5.109-2.011 3.032-2.822 3.202-7.568.379-10.6l-16.311-17.52c-2.824-3.032-7.569-3.2-10.6-.379-3.032 2.822-3.202 7.568-.379 10.6z"/><path d="m88.766 132.832-16.311 17.519c-2.822 3.031-2.653 7.777.378 10.6 1.445 1.345 3.279 2.011 5.109 2.011 2.009 0 4.013-.803 5.491-2.39l16.311-17.519c2.822-3.031 2.653-7.777-.378-10.6-3.031-2.82-7.776-2.652-10.6.379z"/><path d="m94.255 85.135h-19.935c-4.142 0-7.5 3.357-7.5 7.5s3.358 7.5 7.5 7.5h19.936c4.142 0 7.5-3.357 7.5-7.5s-3.359-7.5-7.501-7.5z"/></g></g></svg>