<?xml version="1.0" encoding="UTF-8"?>
<!DOCTYPE svg PUBLIC "-//W3C//DTD SVG 1.1//EN" "http://www.w3.org/Graphics/SVG/1.1/DTD/svg11.dtd">
<!-- Creator: CorelDRAW X7 -->
<svg xmlns="http://www.w3.org/2000/svg" xml:space="preserve" width="21.1666mm" height="8.4666mm" version="1.1" style="shape-rendering:geometricPrecision; text-rendering:geometricPrecision; image-rendering:optimizeQuality; fill-rule:evenodd; clip-rule:evenodd"
viewBox="0 0 2117 847"
 xmlns:xlink="http://www.w3.org/1999/xlink">
 <defs>
  <style type="text/css">
   <![CDATA[
    .fil1 {fill:#232A38}
    .fil0 {fill:#FD0806}
    .fil3 {fill:#232A38;fill-rule:nonzero}
    .fil2 {fill:#FD0806;fill-rule:nonzero}
   ]]>
  </style>
 </defs>
 <g id="Layer_x0020_1">
  <metadata id="CorelCorpID_0Corel-Layer"/>
  <path class="fil0" d="M533 416c33,62 -13,120 -100,88 12,37 28,49 37,70l-113 1c6,-20 24,-33 35,-70 -70,39 -179,80 -273,83 21,36 59,67 113,74 80,11 97,-26 139,-37 -60,155 -47,93 -110,185l304 2c-24,-43 -72,-65 -110,-188 48,17 68,53 152,37 56,-11 89,-44 110,-84 61,-117 -31,-209 -78,-269 -21,21 -31,38 -51,56 -17,17 -43,32 -55,52l0 0 0 0z"/>
  <path class="fil0" d="M311 509c-45,-60 -29,-86 12,-138 17,-21 76,-98 90,-108 23,18 72,94 104,122 46,-27 238,-209 73,-251 27,34 56,62 11,121l-188 -226 -273 340c-38,47 -54,83 -48,161l-50 -14 -8 -52c-83,156 223,78 277,45l0 0 0 0z"/>
  <path class="fil1" d="M311 509c66,-20 169,-89 206,-124 -32,-28 -81,-104 -104,-122 -14,10 -73,87 -90,108 -41,52 -57,78 -12,138l0 0 0 0z"/>
  <path class="fil1" d="M392 505c-11,37 -29,50 -35,70l113 -1c-9,-21 -25,-33 -37,-70 87,32 133,-26 100,-88 -24,13 -48,33 -71,48 -26,17 -43,28 -70,41z"/>
  <g id="_2501190243472">
   <path class="fil2" d="M967 327c0,18 -17,27 -50,27 -11,0 -24,-2 -37,-5 -14,-3 -27,-7 -38,-12l0 49c20,9 45,13 76,13 37,0 64,-7 82,-20 19,-14 28,-33 28,-60 0,-20 -5,-37 -16,-50 -12,-12 -30,-23 -55,-31 -16,-5 -28,-9 -35,-13 -7,-4 -12,-7 -16,-11 -2,-4 -4,-9 -4,-14 0,-16 15,-24 44,-24 20,0 41,5 64,16l0 -49c-8,-4 -18,-7 -31,-9 -12,-2 -24,-3 -37,-3 -32,0 -57,6 -75,20 -18,13 -27,32 -27,56 0,19 6,35 18,48 11,13 30,24 56,33 13,4 23,8 31,12 8,4 13,7 17,12 3,3 5,9 5,15zm284 68l0 -198 -59 0 0 130c-13,19 -25,28 -39,28 -9,0 -15,-2 -19,-8 -4,-6 -6,-15 -6,-27l0 -123 -59 0 0 131c0,25 5,43 16,54 10,11 25,17 45,17 12,0 23,-2 33,-7 10,-5 19,-13 29,-26l2 0 13 29 44 0 0 0zm115 -26l1 0c8,11 15,19 23,24 8,4 18,6 30,6 23,0 41,-9 55,-29 14,-19 20,-45 20,-77 0,-33 -6,-58 -18,-75 -13,-17 -30,-25 -54,-25 -11,0 -21,2 -30,7 -9,4 -17,13 -26,25l-1 0 -13 -28 -44 0 0 292 58 0 0 -80 -1 -40 0 0zm70 -77c0,41 -11,62 -34,62 -14,0 -25,-8 -35,-24l0 -68c5,-8 10,-15 16,-19 7,-5 13,-7 19,-7 23,0 34,19 34,56zm151 21l128 0 0 -21c0,-33 -8,-58 -24,-74 -16,-17 -39,-25 -69,-25 -31,0 -55,9 -72,28 -17,19 -26,46 -26,78 0,32 9,56 26,74 17,18 42,26 74,26 28,0 53,-3 77,-10l0 -42c-24,7 -45,11 -64,11 -30,0 -46,-15 -50,-45zm39 -79c11,0 20,4 26,13 6,8 9,19 9,32l-74 0c1,-14 5,-25 12,-33 6,-8 15,-12 27,-12zm232 11c7,0 14,1 20,2l0 -52c-5,-2 -11,-2 -18,-2 -6,0 -11,1 -16,3 -5,2 -10,6 -14,11 -4,4 -10,11 -16,22l-2 0 -11 -32 -45 0 0 198 58 0 0 -127c6,-7 12,-13 19,-17 7,-4 15,-6 25,-6l0 0z"/>
   <path class="fil3" d="M981 676c0,18 -17,26 -50,26 -12,0 -24,-1 -38,-4 -13,-3 -26,-7 -37,-12l0 48c19,10 45,14 76,14 36,0 64,-7 82,-21 19,-13 28,-33 28,-59 0,-20 -6,-37 -17,-50 -11,-12 -29,-23 -54,-32 -16,-4 -28,-9 -35,-13 -7,-3 -13,-7 -16,-10 -3,-4 -4,-9 -4,-15 0,-15 14,-23 43,-23 21,0 42,5 65,15l0 -49c-9,-3 -19,-6 -31,-8 -12,-2 -25,-3 -38,-3 -31,0 -56,6 -74,19 -18,14 -27,33 -27,56 0,20 6,36 17,49 11,13 30,24 56,33 13,4 24,8 32,12 8,3 13,7 16,11 4,4 6,10 6,16zm162 42l2 0c8,11 15,19 23,23 8,5 18,7 30,7 23,0 41,-10 55,-29 13,-19 20,-45 20,-77 0,-34 -6,-58 -18,-76 -13,-16 -31,-25 -54,-25 -12,0 -21,2 -30,7 -8,5 -17,14 -26,25l-2 0 -12 -27 -44 0 0 292 58 0 0 -80 -2 -40 0 0zm71 -77c0,41 -11,61 -34,61 -14,0 -26,-8 -35,-23l0 -68c5,-9 10,-15 16,-19 6,-5 13,-7 19,-7 23,0 34,19 34,56zm222 103l44 0 0 -123c0,-27 -8,-48 -22,-60 -15,-13 -38,-20 -70,-20 -18,0 -40,5 -65,13l0 41c21,-9 41,-14 59,-14 13,0 23,3 30,7 5,6 9,14 9,25l0 7c-16,-1 -26,-2 -29,-2 -4,0 -7,0 -10,0 -27,0 -47,5 -61,17 -14,11 -22,28 -22,50 0,20 6,36 17,47 11,11 26,16 46,16 12,0 23,-2 32,-7 9,-4 18,-12 27,-24l2 0 13 27zm-15 -90l0 31c-5,8 -12,15 -19,18 -7,4 -14,6 -21,6 -15,0 -22,-8 -22,-25 0,-11 4,-19 10,-25 7,-4 17,-7 31,-7 6,0 12,0 21,2zm228 -82l-2 0c-7,-10 -14,-18 -23,-23 -8,-5 -18,-8 -30,-8 -24,0 -42,10 -55,29 -13,20 -20,45 -20,77 0,33 7,58 19,75 13,17 31,26 54,26 13,0 25,-3 33,-9 9,-5 16,-13 22,-23l2 0 13 28 44 0 0 -278 -59 0 0 68 2 38 0 0zm-71 74c0,-39 12,-59 34,-59 7,0 12,2 17,5 6,3 12,9 18,19l0 68c-4,8 -8,14 -15,18 -6,5 -12,7 -18,7 -24,0 -36,-19 -36,-58zm234 15l128 0 0 -20c0,-33 -8,-58 -23,-75 -17,-16 -40,-25 -70,-25 -31,0 -54,10 -72,29 -17,19 -26,45 -26,78 0,32 9,56 26,74 18,17 42,26 75,26 27,0 53,-3 76,-10l0 -42c-23,7 -45,11 -64,11 -30,0 -46,-15 -50,-46zm39 -78c11,0 20,4 26,12 6,9 9,19 9,33l-74 0c1,-15 5,-26 12,-34 6,-7 15,-11 27,-11z"/>
  </g>
 </g>
</svg>
