<?xml version="1.0" encoding="utf-8"?>
<!-- Generator: Adobe Illustrator 16.0.0, SVG Export Plug-In . SVG Version: 6.00 Build 0)  -->
<!DOCTYPE svg PUBLIC "-//W3C//DTD SVG 1.1//EN" "http://www.w3.org/Graphics/SVG/1.1/DTD/svg11.dtd">
<svg version="1.1" id="Layer_1" xmlns="http://www.w3.org/2000/svg" xmlns:xlink="http://www.w3.org/1999/xlink" x="0px" y="0px"
	 width="512px" height="512px" viewBox="0 0 512 512" enable-background="new 0 0 512 512" xml:space="preserve">
<path fill="#E7B92C" d="M314.451,448.685l84.722-89.044h-84.722V448.685L314.451,448.685z M141.67,257.922h229.939v21.813H141.67
	V257.922z M141.67,313.303H249.3v21.813H141.67V313.303z M141.67,368.702h75.83v21.802h-75.83V368.702z M446.286,348.262
	l-135.04,144.821c-2.66,3.285-6.661,5.193-10.887,5.193H92.353c-14.027,0-25.358-11.332-25.358-25.359V38.963
	c0-13.989,11.35-25.349,25.358-25.349h328.584c13.998,0,25.349,11.36,25.349,25.349V348.262L446.286,348.262z M421.533,334.889
	V38.368H91.748v435.278h197.951V349.104c0-7.785,6.309-14.217,14.227-14.217L421.533,334.889L421.533,334.889z"/>
<path fill="#0EA94B" d="M256.641,74.614c39.935,0,72.293,32.376,72.293,72.292c0,39.934-32.377,72.283-72.293,72.283
	c-39.935,0-72.292-32.367-72.292-72.283C184.348,106.962,216.724,74.614,256.641,74.614z M234.205,135.413l12.816,12.107
	l30.277-30.693c2.517-2.554,4.086-4.597,7.181-1.41l10.035,10.282c3.301,3.263,3.141,5.173,0.02,8.209l-41.779,41.107
	c-6.555,6.432-5.411,6.819-12.069,0.227l-23.374-23.249c-1.391-1.503-1.239-3.017,0.275-4.512l11.663-12.088
	C231.007,133.531,232.417,133.702,234.205,135.413L234.205,135.413z"/>
</svg>
